<svg width="40" height="40" viewBox="0 0 40 40" fill="none" xmlns="http://www.w3.org/2000/svg">
<g clip-path="url(#clip0_11_347)">
<path d="M19.9998 0.799805C9.39581 0.799805 0.799805 9.39581 0.799805 19.9998C0.799805 30.6038 9.39581 39.1998 19.9998 39.1998C30.6038 39.1998 39.1998 30.6038 39.1998 19.9998C39.1998 9.39581 30.6038 0.799805 19.9998 0.799805ZM27.8098 16.5278C27.8178 16.6918 27.8198 16.8558 27.8198 17.0158C27.8198 22.0158 24.0178 27.7778 17.0618 27.7778C15.0064 27.7812 12.9937 27.1909 11.2658 26.0778C11.5598 26.1138 11.8618 26.1278 12.1678 26.1278C13.9398 26.1278 15.5698 25.5258 16.8638 24.5098C16.0752 24.4943 15.3111 24.2332 14.678 23.7628C14.0449 23.2925 13.5743 22.6363 13.3318 21.8858C13.8981 21.9935 14.4815 21.9709 15.0378 21.8198C14.1819 21.6467 13.4122 21.183 12.8592 20.5071C12.3062 19.8313 12.004 18.985 12.0038 18.1118V18.0658C12.5138 18.3478 13.0978 18.5198 13.7178 18.5398C12.9154 18.0057 12.3474 17.1851 12.1299 16.2461C11.9124 15.307 12.0619 14.3203 12.5478 13.4878C13.4977 14.6558 14.6823 15.6113 16.0249 16.2924C17.3676 16.9736 18.8383 17.3651 20.3418 17.4418C20.1507 16.6304 20.2329 15.7786 20.5758 15.0188C20.9187 14.259 21.503 13.6338 22.2379 13.2403C22.9728 12.8469 23.8171 12.7073 24.6396 12.8431C25.462 12.979 26.2165 13.3829 26.7858 13.9918C27.6321 13.8244 28.4438 13.5139 29.1858 13.0738C28.9037 13.9501 28.3132 14.6942 27.5238 15.1678C28.2735 15.0775 29.0055 14.876 29.6958 14.5698C29.1888 15.3296 28.5501 15.9927 27.8098 16.5278Z" fill="#393327"/>
</g>
<defs>
<clipPath id="clip0_11_347">
<rect width="40" height="40" fill="white"/>
</clipPath>
</defs>
</svg>
