<svg width="40" height="40" viewBox="0 0 40 40" fill="none" xmlns="http://www.w3.org/2000/svg">
<circle cx="20" cy="20" r="20" fill="#393327"/>
<path d="M29.6927 15.9972C29.6817 15.1767 29.5281 14.3643 29.2387 13.5965C28.9878 12.9488 28.6045 12.3606 28.1133 11.8695C27.6222 11.3783 27.034 10.995 26.3863 10.7441C25.6284 10.4595 24.8276 10.3057 24.0182 10.2891C22.976 10.2425 22.6456 10.2295 20.0001 10.2295C17.3546 10.2295 17.0155 10.2295 15.9809 10.2891C15.1718 10.3058 14.3715 10.4597 13.6138 10.7441C12.9661 10.9949 12.3778 11.3781 11.8866 11.8693C11.3954 12.3604 11.0122 12.9487 10.7614 13.5965C10.4763 14.3539 10.3228 15.1544 10.3075 15.9636C10.2609 17.0068 10.2468 17.3372 10.2468 19.9827C10.2468 22.6282 10.2468 22.9662 10.3075 24.0019C10.3237 24.8122 10.4765 25.6117 10.7614 26.3712C11.0126 27.0187 11.3961 27.6068 11.8875 28.0977C12.3788 28.5887 12.9671 28.9718 13.6149 29.2225C14.3705 29.5185 15.171 29.6833 15.982 29.71C17.0252 29.7566 17.3557 29.7707 20.0012 29.7707C22.6467 29.7707 22.9857 29.7707 24.0203 29.71C24.8297 29.6941 25.6306 29.5406 26.3885 29.2561C27.036 29.0048 27.624 28.6214 28.1152 28.1303C28.6063 27.6392 28.9897 27.0512 29.2409 26.4037C29.5258 25.6453 29.6786 24.8458 29.6948 24.0344C29.7414 22.9922 29.7555 22.6618 29.7555 20.0152C29.7533 17.3697 29.7533 17.0339 29.6927 15.9972ZM19.9936 24.9856C17.2267 24.9856 14.9853 22.7442 14.9853 19.9773C14.9853 17.2105 17.2267 14.9691 19.9936 14.9691C21.3218 14.9691 22.5957 15.4967 23.5349 16.436C24.4742 17.3752 25.0018 18.6491 25.0018 19.9773C25.0018 21.3056 24.4742 22.5795 23.5349 23.5187C22.5957 24.4579 21.3218 24.9856 19.9936 24.9856ZM25.2012 15.9517C25.0478 15.9518 24.8958 15.9217 24.7541 15.8631C24.6123 15.8044 24.4835 15.7184 24.3751 15.6099C24.2666 15.5015 24.1806 15.3727 24.1219 15.2309C24.0633 15.0892 24.0332 14.9372 24.0333 14.7838C24.0333 14.6305 24.0635 14.4787 24.1222 14.3371C24.1808 14.1955 24.2668 14.0668 24.3752 13.9584C24.4836 13.85 24.6123 13.7641 24.7539 13.7054C24.8955 13.6467 25.0473 13.6165 25.2006 13.6165C25.3539 13.6165 25.5057 13.6467 25.6473 13.7054C25.7889 13.7641 25.9176 13.85 26.026 13.9584C26.1344 14.0668 26.2204 14.1955 26.2791 14.3371C26.3377 14.4787 26.3679 14.6305 26.3679 14.7838C26.3679 15.4295 25.8457 15.9517 25.2012 15.9517Z" fill="white"/>
<path d="M19.9935 23.2306C21.7902 23.2306 23.2467 21.7741 23.2467 19.9774C23.2467 18.1807 21.7902 16.7241 19.9935 16.7241C18.1968 16.7241 16.7402 18.1807 16.7402 19.9774C16.7402 21.7741 18.1968 23.2306 19.9935 23.2306Z" fill="white"/>
</svg>
