<svg width="24" height="24" viewBox="0 0 24 24" fill="none" xmlns="http://www.w3.org/2000/svg">
<path d="M20.25 4.875V19.125C20.2496 19.4233 20.131 19.7092 19.9201 19.9201C19.7092 20.131 19.4232 20.2497 19.125 20.25H12.7158C12.6164 20.25 12.521 20.2105 12.4507 20.1402C12.3803 20.0698 12.3408 19.9745 12.3408 19.875C12.3408 19.7755 12.3803 19.6802 12.4507 19.6098C12.521 19.5395 12.6164 19.5 12.7158 19.5H19.125C19.2244 19.4999 19.3197 19.4604 19.39 19.3901C19.4603 19.3198 19.4999 19.2244 19.5 19.125V4.875C19.4999 4.77557 19.4603 4.68025 19.39 4.60994C19.3197 4.53964 19.2244 4.5001 19.125 4.5H4.87496C4.77554 4.5001 4.68021 4.53964 4.60991 4.60994C4.5396 4.68025 4.50006 4.77557 4.49996 4.875V13.4318C4.49996 13.5313 4.46045 13.6267 4.39013 13.697C4.3198 13.7673 4.22442 13.8068 4.12496 13.8068C4.02551 13.8068 3.93012 13.7673 3.8598 13.697C3.78947 13.6267 3.74996 13.5313 3.74996 13.4318V4.875C3.75028 4.57673 3.86891 4.29077 4.07982 4.07986C4.29073 3.86895 4.57669 3.75032 4.87496 3.75H19.125C19.4232 3.75032 19.7092 3.86895 19.9201 4.07986C20.131 4.29077 20.2496 4.57673 20.25 4.875ZM12.2651 13.9849C12.1948 13.9146 12.0994 13.8751 12 13.8751C11.9005 13.8751 11.8052 13.9146 11.7348 13.9849L5.99996 19.7197L3.26509 16.9849C3.19449 16.9159 3.09953 16.8775 3.0008 16.878C2.90207 16.8786 2.80755 16.9181 2.73774 16.9879C2.66794 17.0577 2.62848 17.1522 2.62794 17.2509C2.62739 17.3497 2.6658 17.4446 2.73484 17.5152L5.73484 20.5152C5.80516 20.5855 5.90053 20.625 5.99996 20.625C6.0994 20.625 6.19476 20.5855 6.26509 20.5152L12.2651 14.5152C12.2999 14.4804 12.3275 14.4391 12.3464 14.3936C12.3652 14.3481 12.3749 14.2993 12.3749 14.25C12.3749 14.2008 12.3652 14.152 12.3464 14.1065C12.3275 14.061 12.2999 14.0197 12.2651 13.9849Z" fill="#393327"/>
</svg>
